<svg width="130" height="40" viewBox="0 0 130 40" fill="none" xmlns="http://www.w3.org/2000/svg"><g clip-path="url(#clip0_72_2)"><path d="M39.9208 15.1395L34.2263 20.8458L36.2321 22.8547L41.9266 17.1483L39.9208 15.1395Z" fill="#B2D235"/><path d="M14.5653 6.2646L8.55933 12.2831L10.5651 14.292L16.5711 8.27345L14.5653 6.2646Z" fill="#B2D235"/><path d="M2.00377 3.70441L-0.00146484 5.71384L6.00621 11.7307L8.01145 9.72123L2.00377 3.70441Z" fill="#B2D235"/><path d="M36.2243 14.2897H33.3743V31.4345H36.2243V14.2897Z" fill="#75787B"/><path d="M21.9742 0H19.1241V28.5655H21.9742V0Z" fill="#75787B"/><path d="M30.5243 5.71034H24.8242V34.2759H30.5243V5.71034Z" fill="#75787B"/><path d="M10.5603 2.85518H4.8602V31.4207H10.5603V2.85518Z" fill="#75787B"/><path d="M16.2741 17.1448H13.4241V34.2897H16.2741V17.1448Z" fill="#75787B"/><path d="M39.0744 37.1448H2.01019V40H39.0744V37.1448Z" fill="#B2D235"/><path d="M33.1118 6.25826L27.1059 12.2768L29.1117 14.2856L35.1177 8.26712L33.1118 6.25826Z" fill="#B2D235"/><path d="M16.5442 0.546256L14.539 2.55568L20.5467 8.57249L22.5519 6.56307L16.5442 0.546256Z" fill="#B2D235"/><path d="M55.3622 20.1241C56.6427 20.1241 57.7992 19.7931 58.8181 19.1448C59.8507 18.4966 60.663 17.6 61.2688 16.4414C61.8608 15.3103 62.1637 14.0276 62.1637 12.6069C62.1637 11.8897 62.15 11.2414 62.1362 10.6345L62.0398 8.41379C62.0261 8.24827 62.0123 7.95862 61.9848 7.55862C61.971 7.15862 61.9435 6.63448 61.9159 5.98621L57.5927 6.68965L59.0246 13.2C58.8594 13.5724 58.6666 13.9034 58.4601 14.1793C58.2536 14.4552 58.0333 14.6897 57.7854 14.8828C57.5376 15.0759 57.276 15.2414 56.9869 15.3517C56.6977 15.4759 56.3948 15.5724 56.0506 15.6414C55.376 15.7793 54.5086 15.8483 53.4347 15.8483V19.8759C53.7513 19.9586 54.068 20.0138 54.3847 20.0552C54.7151 20.0966 55.0318 20.1241 55.3622 20.1241Z" fill="#76797B"/><path d="M67.3131 14.3862L67.2993 0L63.1275 0.524138L63.7746 14.3862H67.3131Z" fill="#76797B"/><path d="M73.3849 15.9862C75.6566 15.9862 77.2538 15.3103 78.1487 13.9586C78.5617 14.469 79.0436 14.869 79.6219 15.1448C80.2002 15.4207 80.8197 15.5586 81.4944 15.5586H82.4582H84.0828H84.5785H85.0466V15.531C86.9466 15.4621 88.4198 15.0345 89.4387 14.1793C89.6314 14.331 89.8104 14.469 89.9756 14.5931C90.1546 14.7172 90.3199 14.8276 90.4988 14.9241C90.6778 15.0207 90.8568 15.1034 91.0358 15.1862C91.2286 15.2552 91.4213 15.3241 91.6554 15.3793C91.8757 15.4345 92.1097 15.4896 92.3713 15.5172C92.5778 15.5448 92.7981 15.5586 93.0322 15.5586H93.225H93.5279H93.996C95.896 15.4896 97.3692 15.0345 98.3881 14.1793C98.5808 14.331 98.7598 14.469 98.925 14.5931C99.104 14.7172 99.2692 14.8276 99.4482 14.9241C99.6272 15.0207 99.8062 15.1034 99.9852 15.1862C100.178 15.2552 100.371 15.3241 100.605 15.3793C100.825 15.4345 101.059 15.4896 101.321 15.5172C101.527 15.5448 101.748 15.5448 101.982 15.5586V15.5724H102.174H102.945C103.827 15.5724 104.653 15.4759 105.396 15.2965C106.14 15.1172 106.828 14.8828 107.434 14.5931C108.783 15.3655 110.036 15.7517 111.193 15.7517C112.473 15.7517 113.698 15.3655 114.869 14.5931C115.433 14.9379 116.094 15.2276 116.838 15.4345C117.223 15.5448 117.581 15.6138 117.911 15.669C118.242 15.7241 118.559 15.7517 118.848 15.7517C119.44 15.7655 119.99 15.669 120.5 15.4621C121.023 15.269 121.464 14.9793 121.849 14.5931C122.235 14.2069 122.538 13.7517 122.758 13.2C122.978 12.6483 123.088 12.0414 123.075 11.3517V4.86896L118.875 5.53103L119.619 11.3655H116.824V6.39999H112.982V11.3655H109.389V6.39999H105.548V11.3655H102.945H101.982H100.247V6.11034H96.5569V11.3655H93.996H93.046H91.3112V6.11034H87.6213V11.3655H85.0604H84.1104H82.4719H81.5082H79.7734L79.3741 3.64137L75.0233 4.79999L76.2762 11.5448H72.0081V9.3793H68.2906L68.2769 11.3793C68.2631 12.9379 68.6761 14.0965 69.5022 14.8414C70.3421 15.6 71.6363 15.9862 73.3849 15.9862Z" fill="#76797B"/><path d="M89.0256 18.0552L87.3046 16.4552L85.322 18.2897L87.3046 20.1103L89.0119 18.5517L90.7329 20.1241L92.7155 18.3034L90.7329 16.469L89.0256 18.0552Z" fill="#76797B"/><path d="M99.7098 16.5241L98.0026 18.1655L96.309 16.5379L94.3815 18.3862L96.309 20.2345L98.0163 18.5793L99.7098 20.2207L101.624 18.3724L99.7098 16.5241Z" fill="#76797B"/><path d="M96.0887 21.2L98.0163 23.0345L99.9301 21.2L98.0163 19.3517L96.0887 21.2Z" fill="#76797B"/><path d="M74.211 22.6483L72.5037 21.0621L70.5211 22.8828L72.5037 24.7172L74.211 23.1448L75.9182 24.7172L77.9146 22.8966L75.9182 21.0759L74.211 22.6483Z" fill="#76797B"/><path d="M104.9 37.931L103.179 36.3448L101.197 38.1793L103.179 39.9862L104.887 38.4276L106.608 40L108.59 38.1931L106.608 36.3586L104.9 37.931Z" fill="#76797B"/><path d="M125.814 25.3793L126.558 31.2138H123.763V26.2483H119.922V31.2138H116.328V26.2483H112.487V31.2138H109.871H108.907H107.172V25.9586H103.482V31.2138H100.921H99.9714H98.9388V25.669L94.7119 26.3035L95.3315 31.2138H92.5365V26.2483H88.6677V31.2138H85.0741V26.2483H81.2328V31.2138H78.6306H77.6668H75.932V25.9586H72.2421V31.2138H69.6812H69.0066C68.745 31.2138 68.5109 31.2 68.3319 31.1862C68.1529 31.1724 68.0153 31.1448 67.9189 31.1035C67.7261 31.0207 67.5884 30.8138 67.4921 30.4966C67.437 30.331 67.3819 30.0828 67.3131 29.7517C67.2442 29.4207 67.1616 29.0069 67.0652 28.5241L66.4181 24.8552L59.8507 25.7379C59.0521 25.8483 58.3362 25.9862 57.7028 26.1793C57.0832 26.3724 56.5325 26.5931 56.0644 26.869C55.1419 27.4069 54.481 28.1931 54.068 29.2C53.655 30.2207 53.4484 31.5448 53.4484 33.2V40L57.7717 39.4897L56.918 30.469L58.0883 30.2621C58.2673 32.9931 58.7354 34.8828 59.4789 35.9035C60.2362 36.9241 61.1036 37.4345 62.0674 37.4345C62.4666 37.4345 62.8659 37.3793 63.2377 37.2828C63.6232 37.1724 63.9812 37.0069 64.3529 36.7862C64.7109 36.5517 65.0688 36.2621 65.413 35.8897C65.7573 35.531 66.0877 35.0759 66.4044 34.5655C66.7348 34.8966 67.0928 35.1172 67.4783 35.2414C67.8225 35.3517 68.2493 35.4069 68.7174 35.4207V35.4345H68.8551H69.2131H69.6812V35.4069C71.5812 35.3379 73.0544 34.9103 74.0733 34.0552C74.266 34.2069 74.445 34.3448 74.6103 34.469C74.7755 34.5931 74.9545 34.7035 75.1335 34.8C75.3124 34.8966 75.4914 34.9793 75.6704 35.0621C75.8632 35.131 76.0559 35.2 76.29 35.2552C76.5103 35.3103 76.7443 35.3655 77.0059 35.3931C77.2125 35.4207 77.4328 35.4207 77.6668 35.4345V35.4483H77.8596H78.6306C79.5118 35.4483 80.3379 35.3517 81.0813 35.1724C81.8386 34.9931 82.5132 34.7586 83.119 34.469C84.4683 35.2414 85.7212 35.6276 86.8778 35.6276C88.1582 35.6276 89.3836 35.2414 90.5539 34.469C91.0496 34.8828 91.5865 35.1862 92.1786 35.4069C92.7706 35.6138 93.3626 35.7241 93.9684 35.7241C94.588 35.7241 95.18 35.6138 95.7308 35.3931C96.2815 35.1724 96.7634 34.8414 97.1902 34.4138C97.3967 34.5931 97.5895 34.7448 97.796 34.8828C98.0025 35.0069 98.2091 35.1172 98.4431 35.2138C98.6634 35.2966 98.8975 35.3655 99.1453 35.4069C99.3931 35.4483 99.6685 35.4621 99.9576 35.4621H99.9714H100.453H100.921C102.821 35.3931 104.295 34.9379 105.313 34.0828C105.506 34.2345 105.685 34.3724 105.85 34.4966C106.016 34.6207 106.195 34.731 106.374 34.8276C106.553 34.9241 106.732 35.0069 106.911 35.0897C107.103 35.1586 107.296 35.2276 107.53 35.2828C107.75 35.3379 107.985 35.3931 108.246 35.4207C108.453 35.4483 108.673 35.4483 108.907 35.4621V35.4759H109.1H109.871C110.752 35.4759 111.578 35.3793 112.322 35.2C113.079 35.0207 113.753 34.7862 114.359 34.4966C115.709 35.269 116.961 35.6552 118.118 35.6552C119.398 35.6552 120.624 35.269 121.794 34.4966C122.359 34.8414 123.019 35.131 123.763 35.3379C124.148 35.4483 124.506 35.5172 124.837 35.5724C125.167 35.6276 125.484 35.6552 125.773 35.6552C126.365 35.669 126.916 35.5724 127.425 35.3655C127.949 35.1724 128.389 34.8828 128.775 34.4966C129.16 34.1103 129.463 33.6552 129.683 33.1035C129.904 32.5517 130.014 31.9448 130 31.2552V24.7862L125.814 25.3793ZM63.4993 32.9931C63.0862 32.9931 62.7558 32.9241 62.4804 32.8C62.205 32.6759 61.9848 32.4828 61.8195 32.2069C61.6543 31.9448 61.5166 31.6138 61.434 31.2138C61.3514 30.8138 61.2826 30.3586 61.255 29.8207L63.9123 29.3931L64.6558 32.8552C64.2152 32.9517 63.8297 32.9931 63.4993 32.9931Z" fill="#76797B"/></g><defs><clipPath id="clip0_72_2"><rect width="130" height="40" fill="white"/></clipPath></defs></svg>